<?xml version="1.0" encoding="UTF-8"?>
<svg version="1.1" xmlns="http://www.w3.org/2000/svg" width="500" height="500">
<path d="M0 0 C1.21047233 2.42094466 1.12317555 3.93944319 1.12025452 6.64431763 C1.12163201 7.62107012 1.12300951 8.59782261 1.12442875 9.60417366 C1.11903159 11.2234744 1.11903159 11.2234744 1.11352539 12.87548828 C1.11364593 14.02554289 1.11376646 15.1755975 1.11389065 16.36050224 C1.11314202 20.09712508 1.10551601 23.83369854 1.09765625 27.5703125 C1.09618668 29.87166317 1.09516606 32.17301417 1.09460449 34.47436523 C1.08935339 43.02458191 1.07539228 51.57479143 1.0625 60.125 C1.041875 79.22375 1.02125 98.3225 1 118 C41.26 118 81.52 118 123 118 C122.96038095 79.86925569 122.96038095 79.86925569 122.90991211 41.73852539 C122.90539551 34.37976074 122.90539551 34.37976074 122.90455627 30.93968201 C122.9030162 28.52639075 122.89949 26.11310028 122.89442444 23.69981384 C122.8871511 20.05384983 122.88609244 16.40793302 122.88647461 12.76196289 C122.8828765 11.67883096 122.87927839 10.59569902 122.87557125 9.47974491 C122.87694875 8.50436992 122.87832624 7.52899492 122.87974548 6.52406311 C122.87836279 5.24230997 122.87836279 5.24230997 122.87695217 3.93466282 C123 2 123 2 124 1 C125.40844604 0.87745706 126.82282938 0.82221516 128.23632812 0.79467773 C129.14639114 0.77474258 130.05645416 0.75480743 130.99409485 0.73426819 C132.49748665 0.70918434 132.49748665 0.70918434 134.03125 0.68359375 C135.07423752 0.66272202 136.11722504 0.64185028 137.19181824 0.62034607 C140.62779948 0.55372654 144.06385631 0.49509082 147.5 0.4375 C148.66294586 0.41665344 149.82589172 0.39580688 151.02407837 0.37432861 C167.24475557 0.08476092 183.46421698 -0.10265642 199.6875 -0.125 C201.01394531 -0.12888229 201.01394531 -0.12888229 202.3671875 -0.13284302 C204.8320745 -0.13859697 207.29683142 -0.13719069 209.76171875 -0.1328125 C210.48836227 -0.13479141 211.2150058 -0.13677032 211.96366882 -0.1388092 C216.88453792 -0.11546208 216.88453792 -0.11546208 218 1 C218.10846611 2.73321462 218.14686827 4.47084456 218.15821838 6.20741272 C218.17290161 7.90071968 218.17290161 7.90071968 218.18788147 9.62823486 C218.19363693 10.87763855 218.1993924 12.12704224 218.20532227 13.41430664 C218.21522186 14.72143112 218.22512146 16.0285556 218.23532104 17.37528992 C218.26243408 20.97013761 218.28340887 24.56499851 218.30332303 28.15989232 C218.32514326 31.9128889 218.35255127 35.66584446 218.37937927 39.41880798 C218.42935992 46.5302785 218.47427874 53.64177173 218.51740164 60.75328678 C218.5667282 68.8474998 218.62166326 76.94167167 218.67708123 85.03584492 C218.79098371 101.69052538 218.89780465 118.34524351 219 135 C222.33190121 131.71335149 225.29176838 128.46188777 228.0625 124.6875 C228.84625 123.62789063 229.63 122.56828125 230.4375 121.4765625 C231.06205078 120.62819824 231.06205078 120.62819824 231.69921875 119.76269531 C233.97108715 116.68407484 236.26707644 113.62357595 238.5625 110.5625 C239.05967529 109.89863281 239.55685059 109.23476562 240.0690918 108.55078125 C244.30463307 102.9042724 248.58823588 97.29516472 252.875 91.6875 C258.7064237 84.05665761 264.44349693 76.3632891 270.12133789 68.61767578 C274.24748738 62.9968891 278.46033057 57.45326474 282.73046875 51.94140625 C284.88754088 49.14575166 287.01210206 46.32913453 289.125 43.5 C294.02055888 36.94654795 298.99472493 30.45380639 303.96386719 23.95605469 C308.64391077 17.82137309 313.24774715 11.6379867 317.72607422 5.35424805 C320.78710503 1.10644749 320.78710503 1.10644749 323 0 C324.77643891 -0.10094764 326.55664603 -0.13837361 328.3359375 -0.14526367 C329.45049316 -0.15164352 330.56504883 -0.15802338 331.71337891 -0.16459656 C332.92171387 -0.16570938 334.13004883 -0.1668222 335.375 -0.16796875 C336.61040527 -0.17129715 337.84581055 -0.17462555 339.11865234 -0.17805481 C341.73469672 -0.1831249 344.35074759 -0.18546311 346.96679688 -0.18530273 C349.65566701 -0.18522122 352.34436772 -0.19219846 355.03320312 -0.20581055 C358.89718891 -0.2240503 362.76097558 -0.22903555 366.625 -0.23046875 C367.83333496 -0.23765427 369.04166992 -0.24483978 370.28662109 -0.25224304 C371.95845459 -0.2476281 371.95845459 -0.2476281 373.6640625 -0.24291992 C374.64842285 -0.24434494 375.6327832 -0.24576996 376.64697266 -0.24723816 C379 0 379 0 381 2 C380.34 2 379.68 2 379 2 C378.34 3.65 377.68 5.3 377 7 C376.34 7 375.68 7 375 7 C374.72994141 7.58467041 374.45988281 8.16934082 374.18164062 8.77172852 C373.00141773 10.99732653 371.71352278 12.72873623 370.09375 14.65234375 C369.52003662 15.33949463 368.94632324 16.02664551 368.35522461 16.73461914 C367.74300049 17.46156982 367.13077637 18.18852051 366.5 18.9375 C361.37102867 25.09135052 356.4044706 31.31904029 351.5546875 37.6953125 C348.0972115 42.20565986 344.482172 46.58831363 340.88647461 50.98852539 C337.37652526 55.28956531 333.91567269 59.62378662 330.5 64 C326.54086551 69.07250515 322.50905284 74.07983044 318.4375 79.0625 C314.55018227 83.82173946 310.72660109 88.61374347 307 93.5 C302.73792101 99.08836614 298.33360701 104.54628513 293.88671875 109.98828125 C289.92587918 114.84170438 286.03584023 119.74454854 282.1862793 124.68652344 C279.64999895 127.93214578 277.0759728 131.14158434 274.4609375 134.32421875 C273.86474609 135.05060547 273.26855469 135.77699219 272.65429688 136.52539062 C271.49014939 137.94000233 270.32231912 139.35159333 269.15039062 140.75976562 C268.62380859 141.39978516 268.09722656 142.03980469 267.5546875 142.69921875 C267.08530762 143.26471436 266.61592773 143.83020996 266.13232422 144.4128418 C264.79666095 146.12077849 264.79666095 146.12077849 264 149 C265.34013204 151.08089311 266.68952665 152.90689468 268.25 154.8125 C268.70455566 155.38436035 269.15911133 155.9562207 269.62744141 156.54541016 C270.59235292 157.75856438 271.56138558 158.96845038 272.53417969 160.17529297 C274.38879229 162.48398294 276.20929732 164.81826885 278.03051758 167.15332031 C282.32988036 172.65887803 286.68953529 178.11535109 291.0625 183.5625 C295.19813228 188.71531902 299.26902313 193.91121016 303.28369141 199.15869141 C307.67383626 204.89372308 312.14286838 210.56574055 316.61328125 216.23828125 C317.98417682 217.97989788 319.35199991 219.72387885 320.71875 221.46875 C325.4663957 227.5275039 330.24284817 233.56082914 335.0625 239.5625 C339.17794396 244.68854699 343.22180091 249.8616288 347.21118164 255.08618164 C350.90835801 259.91392996 354.7110698 264.65352872 358.52148438 269.39208984 C362.70379452 274.60374604 366.78920428 279.8838576 370.84375 285.1953125 C372.28693109 287.07249371 373.76693814 288.92190166 375.28125 290.7421875 C377 293 377 293 377 295 C369.46376311 295.25596917 361.92798138 295.45086088 354.38837528 295.56993389 C350.88616975 295.62711907 347.38695708 295.70451618 343.88647461 295.82983398 C339.85242774 295.97333322 335.82147245 296.02577537 331.78515625 296.07421875 C330.54105484 296.13099289 329.29695343 296.18776703 328.01515198 296.2462616 C322.72207862 296.24998674 319.36724197 296.18100119 315.26304626 292.63586426 C312.96360494 289.85165133 310.95861893 287.03082804 309 284 C307.88340637 282.49535076 306.75904417 280.9963754 305.62109375 279.5078125 C304.55736972 278.04871326 303.49622872 276.58772789 302.4375 275.125 C297.35550037 268.16217771 292.18362762 261.27742777 286.9375 254.4375 C281.33508959 247.12602795 275.87183017 239.73242739 270.50927734 232.24365234 C266.66285046 226.88309167 262.68579939 221.65109293 258.63671875 216.44140625 C255.47701363 212.34773838 252.43109425 208.17123041 249.375 204 C242.29653289 194.34513942 235.04983343 184.82296485 227.765625 175.32275391 C225.52507212 172.37521241 223.33008637 169.394958 221.14648438 166.4050293 C220.76814453 165.94136963 220.38980469 165.47770996 220 165 C219.67 165 219.34 165 219 165 C218.99576806 165.66390967 218.99153612 166.32781935 218.98717594 167.0118475 C218.88400834 183.14351409 218.77539173 199.27513375 218.66066074 215.40672207 C218.60531073 223.20773741 218.55182587 231.00875732 218.50268555 238.80981445 C218.45986543 245.60679182 218.41359302 252.40373527 218.36312145 259.20066029 C218.33650293 262.80176138 218.31164951 266.40285566 218.29092598 270.0039959 C218.26776426 274.01760752 218.23689723 278.03112348 218.20532227 282.04467773 C218.1995668 283.24732773 218.19381134 284.44997772 218.18788147 285.68907166 C218.17809265 286.77587219 218.16830383 287.86267273 218.15821838 288.98240662 C218.14853956 290.40795947 218.14853956 290.40795947 218.1386652 291.86231136 C218 294 218 294 217 295 C214.11393984 295.10056691 211.25177425 295.13615375 208.36523438 295.12939453 C207.45961258 295.13114685 206.55399078 295.13289917 205.6209259 295.13470459 C202.61184807 295.13912454 199.60282848 295.13618461 196.59375 295.1328125 C194.51249175 295.1334855 192.43123357 295.13445549 190.34997559 295.13571167 C185.98184462 295.13718884 181.61373407 295.13503348 177.24560547 295.13037109 C171.63285447 295.1246738 166.02015128 295.1279527 160.40740204 295.13394356 C156.10788611 295.13754866 151.80838162 295.13641082 147.50886536 295.13381577 C145.43870539 295.13314636 143.3685444 295.1339754 141.29838562 295.13629532 C138.41048414 295.13882102 135.52266122 295.13498242 132.63476562 295.12939453 C131.77031326 295.13141876 130.9058609 295.13344299 130.01521301 295.13552856 C124.11426237 295.11426237 124.11426237 295.11426237 123 294 C122.90388581 292.3424238 122.87812245 290.68073014 122.87974548 289.02037048 C122.87768349 287.40279091 122.87768349 287.40279091 122.87557983 285.75253296 C122.87917511 284.5592337 122.88277039 283.36593445 122.88647461 282.13647461 C122.88632858 280.88787155 122.88618256 279.63926849 122.8860321 278.35282898 C122.88661109 274.91909006 122.89164045 271.48541062 122.89860606 268.05168223 C122.90484002 264.46687541 122.90544343 260.88206787 122.90663147 257.29725647 C122.90974466 250.50449955 122.91795788 243.71175865 122.92798096 236.91900879 C122.94122783 227.74307765 122.9466421 218.56714216 122.95248318 209.39120388 C122.96189779 194.92745725 122.98181678 180.46374442 123 166 C82.74 166 42.48 166 1 166 C1.01740234 179.84259766 1.01740234 179.84259766 1.03515625 193.96484375 C1.04026273 199.79362007 1.04511773 205.62239478 1.04882812 211.45117188 C1.05477115 220.71314037 1.06177292 229.9750998 1.07543945 239.23706055 C1.08538619 245.98127151 1.0918534 252.72547515 1.09408849 259.46969324 C1.09539562 263.04286866 1.09848158 266.6160231 1.10573006 270.18919182 C1.11374372 274.17162351 1.11399114 278.15403441 1.11352539 282.13647461 C1.11712067 283.32977386 1.12071594 284.52307312 1.12442017 285.75253296 C1.1230455 286.83091934 1.12167084 287.90930573 1.12025452 289.02037048 C1.12117631 289.96336471 1.1220981 290.90635893 1.12304783 291.87792873 C1 294 1 294 0 295 C-1.46805292 295.09822744 -2.9407746 295.1279837 -4.41210938 295.12939453 C-5.34978149 295.13254669 -6.28745361 295.13569885 -7.25354004 295.13894653 C-8.27330933 295.1369223 -9.29307861 295.13489807 -10.34375 295.1328125 C-11.90289124 295.13424759 -11.90289124 295.13424759 -13.49353027 295.13571167 C-15.69604554 295.13639363 -17.89856279 295.13453827 -20.10107422 295.13037109 C-23.48539719 295.12502308 -26.86958744 295.13031559 -30.25390625 295.13671875 C-32.38802113 295.13605797 -34.52213592 295.13477681 -36.65625 295.1328125 C-37.67601929 295.13483673 -38.69578857 295.13686096 -39.74645996 295.13894653 C-40.68413208 295.13579437 -41.6218042 295.13264221 -42.58789062 295.12939453 C-43.41760376 295.12859894 -44.24731689 295.12780334 -45.10217285 295.12698364 C-47 295 -47 295 -48 294 C-48.09782259 292.45462294 -48.12555512 290.90476466 -48.12584114 289.35629463 C-48.12844889 288.34596896 -48.13105664 287.33564329 -48.13374341 286.2947017 C-48.13151268 285.17128589 -48.12928196 284.04787009 -48.12698364 282.89041138 C-48.12854363 281.70744346 -48.13010362 280.52447555 -48.13171089 279.30566013 C-48.13502419 276.00723499 -48.13381168 272.70886628 -48.13072467 269.4104445 C-48.1284724 265.85890391 -48.13194935 262.30736844 -48.13470459 258.75582886 C-48.13916342 251.79192394 -48.13818524 244.82802978 -48.13529195 237.86412443 C-48.13303799 232.20580083 -48.13272536 226.54748026 -48.13381577 220.88915634 C-48.133969 220.08530324 -48.13412223 219.28145014 -48.13428011 218.45323785 C-48.13459982 216.82044658 -48.13492403 215.18765531 -48.1352527 213.55486403 C-48.13810791 198.22456389 -48.13482001 182.89426972 -48.12945233 167.56397055 C-48.12498596 154.40022868 -48.12575877 141.23649562 -48.13037109 128.07275391 C-48.13571905 112.80221851 -48.13783142 97.53168835 -48.13475883 82.26115215 C-48.13444027 80.63359316 -48.1341259 79.00603418 -48.13381577 77.37847519 C-48.13366149 76.57760034 -48.13350721 75.77672548 -48.13334826 74.95158169 C-48.13248365 69.29886737 -48.13394483 63.64615635 -48.13629532 57.99344254 C-48.13909605 51.10620795 -48.13834933 44.21898476 -48.13301457 37.33175148 C-48.130381 33.81550382 -48.12936668 30.29927518 -48.13266373 26.78302765 C-48.13617901 22.97652624 -48.13199011 19.17005619 -48.12698364 15.36355591 C-48.12921436 14.24460155 -48.13144509 13.12564718 -48.13374341 11.97278512 C-48.13113566 10.95724395 -48.12852791 9.94170279 -48.12584114 8.89538765 C-48.12567879 8.01611772 -48.12551644 7.13684778 -48.12534916 6.23093331 C-48 4 -48 4 -47 1 C-40.6279366 0.85727422 -34.25586558 0.71489279 -27.88378906 0.57275391 C-25.71484196 0.5243312 -23.54589664 0.47582886 -21.37695312 0.42724609 C-18.26432753 0.35753921 -15.15169571 0.28811616 -12.0390625 0.21875 C-11.065065 0.19687622 -10.0910675 0.17500244 -9.08755493 0.15246582 C-8.18677216 0.13244507 -7.28598938 0.11242432 -6.35791016 0.09179688 C-5.56293121 0.07403198 -4.76795227 0.05626709 -3.94888306 0.03796387 C-2.63277756 0.01232639 -1.31635518 0 0 0 Z " fill="#000000" transform="translate(87,92)"/>
<path d="M0 0 C0.81716995 -0.00315216 1.6343399 -0.00630432 2.47627258 -0.009552 C3.33899277 -0.00752777 4.20171295 -0.00550354 5.09057617 -0.00341797 C5.98975266 -0.00437469 6.88892914 -0.00533142 7.81535339 -0.00631714 C9.70551626 -0.00699494 11.5956815 -0.00516867 13.48583984 -0.00097656 C16.39124699 0.00440881 19.29650173 -0.00095111 22.2019043 -0.00732422 C24.03979526 -0.00666398 25.87768614 -0.00538395 27.71557617 -0.00341797 C29.02483818 -0.00645432 29.02483818 -0.00645432 30.36054993 -0.009552 C36.45607375 0.01442335 36.45607375 0.01442335 37.57104492 1.12939453 C37.67951103 2.86260915 37.71791319 4.60023909 37.72926331 6.33680725 C37.73905212 7.46567856 37.74884094 8.59454987 37.75892639 9.75762939 C37.76755959 11.63173492 37.76755959 11.63173492 37.77636719 13.54370117 C37.78626678 14.85082565 37.79616638 16.15795013 37.80636597 17.50468445 C37.833479 21.09953214 37.85445379 24.69439304 37.87436795 28.28928685 C37.89618818 32.04228343 37.92359619 35.79523899 37.95042419 39.54820251 C38.00040484 46.65967303 38.04532367 53.77116626 38.08844656 60.88268131 C38.13777312 68.97689433 38.19270819 77.0710662 38.24812615 85.16523945 C38.36202863 101.81991991 38.46884957 118.47463804 38.57104492 135.12939453 C41.90294613 131.84274602 44.86281331 128.5912823 47.63354492 124.81689453 C48.41729492 123.75728516 49.20104492 122.69767578 50.00854492 121.60595703 C50.42491211 121.04038086 50.8412793 120.47480469 51.27026367 119.89208984 C53.54213208 116.81346937 55.83812136 113.75297048 58.13354492 110.69189453 C58.63072021 110.02802734 59.12789551 109.36416016 59.64013672 108.68017578 C63.87567799 103.03366693 68.1592808 97.42455925 72.44604492 91.81689453 C78.27746863 84.18605214 84.01454185 76.49268363 89.69238281 68.74707031 C93.8185323 63.12628364 98.03137549 57.58265927 102.30151367 52.07080078 C104.4585858 49.27514619 106.58314698 46.45852906 108.69604492 43.62939453 C113.5916038 37.07594248 118.56576985 30.58320093 123.53491211 24.08544922 C128.21495569 17.95076762 132.81879207 11.76738123 137.29711914 5.48364258 C140.35814995 1.23584202 140.35814995 1.23584202 142.57104492 0.12939453 C144.34748383 0.02844689 146.12769095 -0.00897908 147.90698242 -0.01586914 C149.02153809 -0.02224899 150.13609375 -0.02862885 151.28442383 -0.03520203 C152.49275879 -0.03631485 153.70109375 -0.03742767 154.94604492 -0.03857422 C156.1814502 -0.04190262 157.41685547 -0.04523102 158.68969727 -0.04866028 C161.30574165 -0.05373037 163.92179251 -0.05606858 166.5378418 -0.0559082 C169.22671193 -0.05582669 171.91541264 -0.06280393 174.60424805 -0.07641602 C178.46823383 -0.09465577 182.3320205 -0.09964102 186.19604492 -0.10107422 C187.40437988 -0.10825974 188.61271484 -0.11544525 189.85766602 -0.12284851 C191.52949951 -0.11823357 191.52949951 -0.11823357 193.23510742 -0.11352539 C194.21946777 -0.11495041 195.20382812 -0.11637543 196.21801758 -0.11784363 C198.57104492 0.12939453 198.57104492 0.12939453 200.57104492 2.12939453 C199.91104492 2.12939453 199.25104492 2.12939453 198.57104492 2.12939453 C197.91104492 3.77939453 197.25104492 5.42939453 196.57104492 7.12939453 C195.91104492 7.12939453 195.25104492 7.12939453 194.57104492 7.12939453 C194.30098633 7.71406494 194.03092773 8.29873535 193.75268555 8.90112305 C192.57246265 11.12672106 191.2845677 12.85813076 189.66479492 14.78173828 C189.09108154 15.46888916 188.51736816 16.15604004 187.92626953 16.86401367 C187.31404541 17.59096436 186.70182129 18.31791504 186.07104492 19.06689453 C180.9420736 25.22074505 175.97551552 31.44843482 171.12573242 37.82470703 C167.66825642 42.33505439 164.05321692 46.71770816 160.45751953 51.11791992 C156.94757018 55.41895984 153.48671761 59.75318115 150.07104492 64.12939453 C146.11191044 69.20189968 142.08009776 74.20922498 138.00854492 79.19189453 C134.12122719 83.95113399 130.29764601 88.743138 126.57104492 93.62939453 C122.30896593 99.21776067 117.90465193 104.67567966 113.45776367 110.11767578 C109.49692411 114.97109891 105.60688515 119.87394307 101.75732422 124.81591797 C99.22104387 128.06154031 96.64701772 131.27097887 94.03198242 134.45361328 C93.43579102 135.18 92.83959961 135.90638672 92.2253418 136.65478516 C91.06119432 138.06939686 89.89336405 139.48098786 88.72143555 140.88916016 C88.19485352 141.52917969 87.66827148 142.16919922 87.12573242 142.82861328 C86.4216626 143.67685669 86.4216626 143.67685669 85.70336914 144.54223633 C84.36770587 146.25017302 84.36770587 146.25017302 83.57104492 149.12939453 C84.91117697 151.21028764 86.26057157 153.03628921 87.82104492 154.94189453 C88.27560059 155.51375488 88.73015625 156.08561523 89.19848633 156.67480469 C90.16339784 157.88795892 91.1324305 159.09784491 92.10522461 160.3046875 C93.95983721 162.61337747 95.78034224 164.94766338 97.6015625 167.28271484 C101.90092528 172.78827256 106.26058021 178.24474562 110.63354492 183.69189453 C114.7691772 188.84471355 118.84006805 194.04060469 122.85473633 199.28808594 C127.24488119 205.02311761 131.7139133 210.69513508 136.18432617 216.36767578 C137.55522175 218.10929241 138.92304483 219.85327338 140.28979492 221.59814453 C145.03744062 227.65689843 149.81389309 233.69022367 154.63354492 239.69189453 C158.74898889 244.81794152 162.79284583 249.99102334 166.78222656 255.21557617 C170.47940293 260.04332449 174.28211472 264.78292325 178.0925293 269.52148438 C182.27483944 274.73314058 186.3602492 280.01325213 190.41479492 285.32470703 C191.85797602 287.20188824 193.33798306 289.0512962 194.85229492 290.87158203 C196.57104492 293.12939453 196.57104492 293.12939453 196.57104492 295.12939453 C189.03480803 295.3853637 181.4990263 295.58025541 173.9594202 295.69932842 C170.45721467 295.7565136 166.958002 295.83391071 163.45751953 295.95922852 C159.42347266 296.10272775 155.39251737 296.1551699 151.35620117 296.20361328 C150.11209976 296.26038742 148.86799835 296.31716156 147.5861969 296.37565613 C142.29312355 296.37938128 138.9382869 296.31039572 134.83409119 292.76525879 C132.53464986 289.98104586 130.52966386 287.16022257 128.57104492 284.12939453 C127.45445129 282.62474529 126.33008909 281.12576993 125.19213867 279.63720703 C124.12841464 278.1781078 123.06727364 276.71712242 122.00854492 275.25439453 C116.92654529 268.29157224 111.75467255 261.4068223 106.50854492 254.56689453 C100.90613451 247.25542248 95.4428751 239.86182192 90.08032227 232.37304688 C86.23389538 227.0124862 82.25684431 221.78048746 78.20776367 216.57080078 C75.04805855 212.47713291 72.00213917 208.30062494 68.94604492 204.12939453 C61.86757781 194.47453395 54.62087835 184.95235938 47.33666992 175.45214844 C45.09611704 172.50460694 42.90113129 169.52435253 40.7175293 166.53442383 C40.15001953 165.83893433 40.15001953 165.83893433 39.57104492 165.12939453 C39.24104492 165.12939453 38.91104492 165.12939453 38.57104492 165.12939453 C38.56681298 165.7933042 38.56258104 166.45721388 38.55822086 167.14124203 C38.45505326 183.27290862 38.34643665 199.40452828 38.23170567 215.5361166 C38.17635565 223.33713194 38.12287079 231.13815185 38.07373047 238.93920898 C38.03091035 245.73618635 37.98463795 252.5331298 37.93416637 259.33005482 C37.90754785 262.93115591 37.88269443 266.53225019 37.8619709 270.13339043 C37.83880918 274.14700206 37.80794216 278.16051801 37.77636719 282.17407227 C37.77061172 283.37672226 37.76485626 284.57937225 37.75892639 285.81846619 C37.74913757 286.90526672 37.73934875 287.99206726 37.72926331 289.11180115 C37.72281075 290.06216971 37.7163582 291.01253828 37.70971012 291.99170589 C37.57104492 294.12939453 37.57104492 294.12939453 36.57104492 295.12939453 C21.06104492 295.12939453 5.55104492 295.12939453 -10.42895508 295.12939453 C-10.42895508 198.10939453 -10.42895508 101.08939453 -10.42895508 1.12939453 C-3.67724101 0.00410885 -3.67724101 0.00410885 0 0 Z " fill="#01A87F" transform="translate(267.428955078125,91.87060546875)"/>
<path d="M0 0 C1.98 0 3.96 0 6 0 C5.01 0.495 5.01 0.495 4 1 C4 1.66 4 2.32 4 3 C3.01 3 2.02 3 1 3 C1.33 98.37 1.66 193.74 2 292 C16.85 292.33 31.7 292.66 47 293 C47 293.33 47 293.66 47 294 C31.49 294 15.98 294 0 294 C0 196.98 0 99.96 0 0 Z " fill="#278C70" transform="translate(257,93)"/>
<path d="M0 0 C0 4.03630395 -1.76015153 5.67222513 -4 9 C-5.1052067 11.30289931 -6.05041063 13.62602658 -7 16 C-7.99 16 -8.98 16 -10 16 C-10.33 19.3 -10.66 22.6 -11 26 C-11.928125 26.268125 -12.85625 26.53625 -13.8125 26.8125 C-16.88880839 27.95857567 -17.83330936 28.73482342 -20 31 C-21.3225114 31.37396858 -22.65613912 31.71202981 -24 32 C-20.17092751 25.91853193 -15.91865402 20.37738482 -11.3203125 14.859375 C-8.23304019 11.05485761 -5.37724609 7.10384075 -2.53125 3.1171875 C-1 1 -1 1 0 0 Z " fill="#0AA473" transform="translate(330,197)"/>
<path d="M0 0 C0.66 0 1.32 0 2 0 C2.81506461 1.30043551 3.59753753 2.62137814 4.36376953 3.95117188 C6.3261076 6.63508286 7.34964764 7.82015417 10.58587646 8.71508789 C13.81007033 8.92540331 16.95067135 8.8994118 20.1796875 8.78125 C21.3475882 8.76993042 22.51548889 8.75861084 23.71878052 8.74694824 C27.43920781 8.70225992 31.15574308 8.60189745 34.875 8.5 C37.40098591 8.45986388 39.92703238 8.42336337 42.453125 8.390625 C48.63673854 8.30254893 54.81809125 8.16878279 61 8 C60.7525 7.1028125 60.7525 7.1028125 60.5 6.1875 C60 4 60 4 60 1 C61.00593243 2.1196986 62.0045849 3.2459412 63 4.375 C63.8353125 5.31472656 63.8353125 5.31472656 64.6875 6.2734375 C66 8 66 8 66 10 C58.42889493 10.20910696 50.85809122 10.36873047 43.28475094 10.46630955 C39.76732396 10.51316168 36.25188075 10.57662553 32.7355957 10.67895508 C28.68682566 10.79603482 24.64011736 10.8392203 20.58984375 10.87890625 C18.70820778 10.9485836 18.70820778 10.9485836 16.78855896 11.01966858 C8.21092173 11.02460711 8.21092173 11.02460711 4.60281372 7.97164917 C0 2.16188212 0 2.16188212 0 0 Z " fill="#1D9B67" transform="translate(398,377)"/>
<path d="M0 0 C1.134375 0.020625 2.26875 0.04125 3.4375 0.0625 C1.66159413 4.25531918 -1.18762115 7.59394285 -4 11.125 C-4.49048828 11.74955078 -4.98097656 12.37410156 -5.48632812 13.01757812 C-7.72931249 15.85384851 -9.96690848 18.53807257 -12.5625 21.0625 C-12.2325 18.7525 -11.9025 16.4425 -11.5625 14.0625 C-10.77875 13.835625 -9.995 13.60875 -9.1875 13.375 C-6.42065779 12.29085589 -6.42065779 12.29085589 -5.25 9.8125 C-4.49773617 6.80344466 -4.49228403 4.15200276 -4.5625 1.0625 C-3.5625 0.0625 -3.5625 0.0625 0 0 Z " fill="#07A27B" transform="translate(421.5625,144.9375)"/>
<path d="M0 0 C0 3.15135387 -0.35152208 3.92631341 -1.9375 6.5 C-3.30339281 8.73242697 -4.15844227 10.47532682 -5 13 C-5.66 12.67 -6.32 12.34 -7 12 C-7.226875 12.721875 -7.45375 13.44375 -7.6875 14.1875 C-9.25037704 17.53652223 -11.33585251 19.47247546 -14 22 C-14.33 22.66 -14.66 23.32 -15 24 C-15.66 24 -16.32 24 -17 24 C-17.33 25.65 -17.66 27.3 -18 29 C-18.99 29 -19.98 29 -21 29 C-19.69995229 26.24746955 -18.26063693 23.85233414 -16.42578125 21.42578125 C-15.67603027 20.42998047 -15.67603027 20.42998047 -14.91113281 19.4140625 C-14.38358398 18.72054687 -13.85603516 18.02703125 -13.3125 17.3125 C-12.77592773 16.60222656 -12.23935547 15.89195312 -11.68652344 15.16015625 C-7.83568444 10.07212787 -3.95220447 5.00983665 0 0 Z " fill="#0DA469" transform="translate(376,136)"/>
<path d="M0 0 C4.87072783 4.56630734 8.89156398 9.74976539 13 15 C12.01 15.33 11.02 15.66 10 16 C6 11.25 6 11.25 6 9 C5.360625 8.7525 4.72125 8.505 4.0625 8.25 C2 7 2 7 1.3125 5.0625 C1.1578125 4.0415625 1.1578125 4.0415625 1 3 C0.67 2.01 0.34 1.02 0 0 Z " fill="#0D9D71" transform="translate(377,276)"/>
<path d="M0 0 C1.98 0.66 3.96 1.32 6 2 C3.83735988 5.98381075 1.28788824 8.88983545 -2 12 C-1.44687265 7.97007218 -0.8441938 3.97977076 0 0 Z " fill="#099F77" transform="translate(386,185)"/>
<path d="M0 0 C0.625 1.875 0.625 1.875 1 4 C0.34 4.66 -0.32 5.32 -1 6 C-0.67 6.99 -0.34 7.98 0 9 C-2.64 9.99 -5.28 10.98 -8 12 C-6.59023295 8.96147295 -4.91129772 6.4060405 -2.875 3.75 C-2.06675781 2.69039063 -2.06675781 2.69039063 -1.2421875 1.609375 C-0.83226562 1.07828125 -0.42234375 0.5471875 0 0 Z " fill="#0CA272" transform="translate(397,108)"/>
<path d="M0 0 C0 3.80345877 -1.13786331 4.77701015 -3.5 7.6875 C-4.47453125 8.89986328 -4.47453125 8.89986328 -5.46875 10.13671875 C-5.9740625 10.75160156 -6.479375 11.36648437 -7 12 C-7.97591583 8.61682513 -7.85856655 6.4342662 -7 3 C-6.34 3.33 -5.68 3.66 -5 4 C-4.67 3.34 -4.34 2.68 -4 2 C-1.9375 0.875 -1.9375 0.875 0 0 Z " fill="#0E9C73" transform="translate(362,223)"/>
<path d="M0 0 C0.99 0.33 1.98 0.66 3 1 C-1.455 6.94 -1.455 6.94 -6 13 C-7 9 -7 9 -6.3125 6.8125 C-5 5 -5 5 -2.875 4.25 C-2.25625 4.1675 -1.6375 4.085 -1 4 C-0.67 2.68 -0.34 1.36 0 0 Z " fill="#109F71" transform="translate(416,153)"/>
<path d="M0 0 C0 4.51319676 -1.95036593 8.0471343 -4 12 C-4.66 11.67 -5.32 11.34 -6 11 C-6.33 11.66 -6.66 12.32 -7 13 C-7.66 12.67 -8.32 12.34 -9 12 C-6.03 8.04 -3.06 4.08 0 0 Z " fill="#0E9C6D" transform="translate(351,169)"/>
<path d="M0 0 C3.63559661 3.43361902 6.36113346 6.7973607 9 11 C7.68 10.34 6.36 9.68 5 9 C5 8.34 5 7.68 5 7 C3.35 6.67 1.7 6.34 0 6 C0 4.02 0 2.04 0 0 Z " fill="#0E9F72" transform="translate(419,329)"/>
<path d="M0 0 C0.33 0.99 0.66 1.98 1 3 C1.66 3.33 2.32 3.66 3 4 C-2.89285714 9.22321429 -2.89285714 9.22321429 -7 10 C-6.02223933 8.51990357 -5.0427506 7.04094856 -4.0625 5.5625 C-3.51722656 4.73878906 -2.97195313 3.91507813 -2.41015625 3.06640625 C-1 1 -1 1 0 0 Z " fill="#0F9F74" transform="translate(313,219)"/>
<path d="M0 0 C0 3.15135387 -0.35152208 3.92631341 -1.9375 6.5 C-3.30339281 8.73242697 -4.15844227 10.47532682 -5 13 C-5.66 12.67 -6.32 12.34 -7 12 C-7.33 12.66 -7.66 13.32 -8 14 C-8.66 13.67 -9.32 13.34 -10 13 C-8.5217985 11.02010587 -7.0424882 9.04105782 -5.5625 7.0625 C-5.14162109 6.49853516 -4.72074219 5.93457031 -4.28710938 5.35351562 C-1.11328125 1.11328125 -1.11328125 1.11328125 0 0 Z " fill="#0C9B70" transform="translate(376,136)"/>
<path d="M0 0 C0 3.58912412 -0.66436554 4.10857029 -3 6.6875 C-3.556875 7.31011719 -4.11375 7.93273437 -4.6875 8.57421875 C-5.120625 9.04472656 -5.55375 9.51523438 -6 10 C-6.33 9.01 -6.66 8.02 -7 7 C-4.66666667 4.66666667 -2.33333333 2.33333333 0 0 Z " fill="#159D6C" transform="translate(370,213)"/>
<path d="M0 0 C1.32 0.33 2.64 0.66 4 1 C3.2884375 2.175625 3.2884375 2.175625 2.5625 3.375 C1.66101977 4.88948678 0.78820515 6.4235897 0 8 C-0.66 7.34 -1.32 6.68 -2 6 C-2 5.01 -2 4.02 -2 3 C-1.34 3 -0.68 3 0 3 C0 2.01 0 1.02 0 0 Z " fill="#0B9B70" transform="translate(350,235)"/>
<path d="M0 0 C0 4.38968456 -2.12805101 5.76905739 -5 9 C-6 7 -6 7 -5.3125 4.5 C-3.84432962 1.70348499 -2.90696099 1.06588569 0 0 Z " fill="#109B6F" transform="translate(432,135)"/>
<path d="M0 0 C0.33 1.32 0.66 2.64 1 4 C-0.65 5.32 -2.3 6.64 -4 8 C-4 4.09161134 -2.49432124 2.88405893 0 0 Z " fill="#119F6F" transform="translate(403,100)"/>
<path d="M0 0 C0.33 0 0.66 0 1 0 C1 1.65 1 3.3 1 5 C-0.32 5.33 -1.64 5.66 -3 6 C-3 6.66 -3 7.32 -3 8 C-3.66 7.67 -4.32 7.34 -5 7 C-4.19152271 5.83054208 -3.37810888 4.66449539 -2.5625 3.5 C-2.11003906 2.8503125 -1.65757812 2.200625 -1.19140625 1.53125 C-0.79824219 1.0259375 -0.40507812 0.520625 0 0 Z " fill="#109C70" transform="translate(338,186)"/>
<path d="M0 0 C1.485 0.99 1.485 0.99 3 2 C1.25 5.875 1.25 5.875 -1 7 C-1.04254356 5.00045254 -1.04080783 2.99958364 -1 1 C-0.67 0.67 -0.34 0.34 0 0 Z " fill="#08A873" transform="translate(459,97)"/>
<path d="M0 0 C4.875 4.625 4.875 4.625 6 8 C4.68 7.67 3.36 7.34 2 7 C1.855625 6.401875 1.71125 5.80375 1.5625 5.1875 C1.1127561 3.43849596 0.57107659 1.71322977 0 0 Z " fill="#0F9F70" transform="translate(457,378)"/>
<path d="M0 0 C0.99 1.32 1.98 2.64 3 4 C2.01 5.485 2.01 5.485 1 7 C-2 3.25 -2 3.25 -2 1 C-1.34 0.67 -0.68 0.34 0 0 Z " fill="#0DA172" transform="translate(372,338)"/>
<path d="M0 0 C1.65 1.65 3.3 3.3 5 5 C4.67 5.66 4.34 6.32 4 7 C2.68 7 1.36 7 0 7 C0 4.69 0 2.38 0 0 Z " fill="#089F71" transform="translate(353,245)"/>
<path d="M0 0 C0.66 0 1.32 0 2 0 C0.55746343 3.36591866 -1.33264727 5.51047079 -4 8 C-3.67 6.35 -3.34 4.7 -3 3 C-2.01 2.67 -1.02 2.34 0 2 C0 1.34 0 0.68 0 0 Z " fill="#0F9F73" transform="translate(404,169)"/>
</svg>
